/* XPM */
static char * carrot_xpm[] = {
"40 48 8 1",
" 	c #509B66",
".	c #134C4C",
"+	c #5AC54F",
"@	c #33984B",
"#	c #FEAE34",
"$	c #F77622",
"%	c #612A0A",
"&	c #724B3B",
"                            ........    ",
"                            ........    ",
"                            ........    ",
"                            ........    ",
"    ........            ....++++++++....",
"    ........            ....++++++++....",
"    ........            ....++++++++....",
"    ........            ....++++++++....",
"....++++++++....    ....++++++++@@@@....",
"....++++++++....    ....++++++++@@@@....",
"....++++++++....    ....++++++++@@@@....",
"....++++++++....    ....++++++++@@@@....",
"....@@@@++++++++........++++@@@@....    ",
"....@@@@++++++++........++++@@@@....    ",
"....@@@@++++++++........++++@@@@....    ",
"....@@@@++++++++........++++@@@@....    ",
"    ....@@@@++++....++++@@@@@@@@....    ",
"    ....@@@@++++....++++@@@@@@@@....    ",
"    ....@@@@++++....++++@@@@@@@@....    ",
"    ....@@@@++++....++++@@@@@@@@....    ",
"    ....@@@@++++++++@@@@@@@@....        ",
"    ....@@@@++++++++@@@@@@@@....        ",
"    ....@@@@++++++++@@@@@@@@....        ",
"    ....@@@@++++++++@@@@@@@@....        ",
"        ....@@@@@@@@@@@@....            ",
"        ....@@@@@@@@@@@@....            ",
"        ....@@@@@@@@@@@@....            ",
"        ....@@@@@@@@@@@@....            ",
"            ....########$$$$%%%%        ",
"            ....########$$$$%%%%        ",
"            ....########$$$$%%%%        ",
"            ....########$$$$%%%%        ",
"        %%%%################$$$$%%%%    ",
"        %%%%################$$$$%%%%    ",
"        %%%%################$$$$%%%%    ",
"        %%%%################$$$$%%%%    ",
"        %%%%$$$$########$$$$$$$$%%%%&&&&",
"        %%%%$$$$########$$$$$$$$%%%%&&&&",
"        %%%%$$$$########$$$$$$$$%%%%&&&&",
"        %%%%$$$$########$$$$$$$$%%%%&&&&",
"        &&&&&&&&$$$$$$$$$$$$&&&&&&&&&&&&",
"        &&&&&&&&$$$$$$$$$$$$&&&&&&&&&&&&",
"        &&&&&&&&$$$$$$$$$$$$&&&&&&&&&&&&",
"        &&&&&&&&$$$$$$$$$$$$&&&&&&&&&&&&",
"            &&&&&&&&&&&&&&&&&&&&&&&&    ",
"            &&&&&&&&&&&&&&&&&&&&&&&&    ",
"            &&&&&&&&&&&&&&&&&&&&&&&&    ",
"            &&&&&&&&&&&&&&&&&&&&&&&&    "};
