/* XPM */
static char * red_flower_xpm[] = {
"48 52 8 1",
" 	c #509B66",
".	c #265C42",
"+	c #7A2934",
"@	c #F68187",
"#	c #D84650",
"$	c #50AF5D",
"%	c #3E8948",
"&	c #3E7B50",
"            ........                            ",
"            ........                            ",
"            ........                            ",
"            ........                            ",
"        ....        ....                        ",
"        ....        ....                        ",
"        ....        ....                        ",
"        ....        ....                        ",
"    ++++++++++++    ....                        ",
"    ++++++++++++    ....                        ",
"    ++++++++++++    ....                        ",
"    ++++++++++++    ....                        ",
"++++@@@@########++++....    ........            ",
"++++@@@@########++++....    ........            ",
"++++@@@@########++++....    ........            ",
"++++@@@@########++++....    ........            ",
"++++@@@@@@@@####++++........        ....        ",
"++++@@@@@@@@####++++........        ....        ",
"++++@@@@@@@@####++++........        ....        ",
"++++@@@@@@@@####++++........        ....        ",
"++++@@@@++++@@@@++++....        ++++++++++++    ",
"++++@@@@++++@@@@++++....        ++++++++++++    ",
"++++@@@@++++@@@@++++....        ++++++++++++    ",
"++++@@@@++++@@@@++++....        ++++++++++++    ",
"    ++++    ++++    ....    ++++@@@@########++++",
"    ++++    ++++    ....    ++++@@@@########++++",
"    ++++    ++++    ....    ++++@@@@########++++",
"    ++++    ++++    ....    ++++@@@@########++++",
"        ........    ....    ++++@@@@@@@@####++++",
"        ........    ....    ++++@@@@@@@@####++++",
"        ........    ....    ++++@@@@@@@@####++++",
"        ........    ....    ++++@@@@@@@@####++++",
"        ....$$$$....$$$$....++++@@@@++++@@@@++++",
"        ....$$$$....$$$$....++++@@@@++++@@@@++++",
"        ....$$$$....$$$$....++++@@@@++++@@@@++++",
"        ....$$$$....$$$$....++++@@@@++++@@@@++++",
"            ....$$$$$$$$%%%%....++++&&&&++++    ",
"            ....$$$$$$$$%%%%....++++&&&&++++    ",
"            ....$$$$$$$$%%%%....++++&&&&++++    ",
"            ....$$$$$$$$%%%%....++++&&&&++++    ",
"    &&&&&&&&&&&&....%%%%....&&&&&&&&&&&&&&&&&&&&",
"    &&&&&&&&&&&&....%%%%....&&&&&&&&&&&&&&&&&&&&",
"    &&&&&&&&&&&&....%%%%....&&&&&&&&&&&&&&&&&&&&",
"    &&&&&&&&&&&&....%%%%....&&&&&&&&&&&&&&&&&&&&",
"&&&&&&&&&&&&&&&&&&&&&&&&&&&&&&&&&&&&&&&&&&&&&&&&",
"&&&&&&&&&&&&&&&&&&&&&&&&&&&&&&&&&&&&&&&&&&&&&&&&",
"&&&&&&&&&&&&&&&&&&&&&&&&&&&&&&&&&&&&&&&&&&&&&&&&",
"&&&&&&&&&&&&&&&&&&&&&&&&&&&&&&&&&&&&&&&&&&&&&&&&",
"    &&&&&&&&                &&&&&&&&&&&&&&&&    ",
"    &&&&&&&&                &&&&&&&&&&&&&&&&    ",
"    &&&&&&&&                &&&&&&&&&&&&&&&&    ",
"    &&&&&&&&                &&&&&&&&&&&&&&&&    "};
