/* XPM */
static char * ye_flower_xpm[] = {
"28 48 10 1",
" 	c #509B66",
".	c #95420F",
"+	c #FFEB57",
"@	c #FFA214",
"#	c #D84650",
"$	c #7A2934",
"%	c #265C42",
"&	c #50AF5D",
"*	c #3E8948",
"=	c #3E7B50",
"    ........    ........    ",
"    ........    ........    ",
"    ........    ........    ",
"    ........    ........    ",
"....++++++++....++++@@@@....",
"....++++++++....++++@@@@....",
"....++++++++....++++@@@@....",
"....++++++++....++++@@@@....",
"....++++@@@@++++@@@@@@@@....",
"....++++@@@@++++@@@@@@@@....",
"....++++@@@@++++@@@@@@@@....",
"....++++@@@@++++@@@@@@@@....",
"    ....@@@@####@@@@....    ",
"    ....@@@@####@@@@....    ",
"    ....@@@@####@@@@....    ",
"    ....@@@@####@@@@....    ",
"....++++++++@@@@++++@@@@....",
"....++++++++@@@@++++@@@@....",
"....++++++++@@@@++++@@@@....",
"....++++++++@@@@++++@@@@....",
"....++++@@@@$$$$@@@@@@@@....",
"....++++@@@@$$$$@@@@@@@@....",
"....++++@@@@$$$$@@@@@@@@....",
"....++++@@@@$$$$@@@@@@@@....",
"    ........%%%%........    ",
"    ........%%%%........    ",
"    ........%%%%........    ",
"    ........%%%%........    ",
"%%%%%%%%    %%%%    %%%%%%%%",
"%%%%%%%%    %%%%    %%%%%%%%",
"%%%%%%%%    %%%%    %%%%%%%%",
"%%%%%%%%    %%%%    %%%%%%%%",
"%%%%&&&&%%%%&&&&%%%%&&&&%%%%",
"%%%%&&&&%%%%&&&&%%%%&&&&%%%%",
"%%%%&&&&%%%%&&&&%%%%&&&&%%%%",
"%%%%&&&&%%%%&&&&%%%%&&&&%%%%",
"    %%%%&&&&&&&&****%%%%    ",
"    %%%%&&&&&&&&****%%%%    ",
"    %%%%&&&&&&&&****%%%%    ",
"    %%%%&&&&&&&&****%%%%    ",
"========%%%%****%%%%========",
"========%%%%****%%%%========",
"========%%%%****%%%%========",
"========%%%%****%%%%========",
"    ====================    ",
"    ====================    ",
"    ====================    ",
"    ====================    "};
