/* XPM */
static char * grass_d1_xpm[] = {
"40 16 3 1",
" 	c #509B66",
".	c #50AF5D",
"+	c #3E7B50",
"    ........            ............    ",
"    ........            ............    ",
"    ........            ............    ",
"    ........            ............    ",
"++++++++........    ............++++++++",
"++++++++........    ............++++++++",
"++++++++........    ............++++++++",
"++++++++........    ............++++++++",
"    ++++++++        ........++++++++    ",
"    ++++++++        ........++++++++    ",
"    ++++++++        ........++++++++    ",
"    ++++++++        ........++++++++    ",
"                        ++++++++        ",
"                        ++++++++        ",
"                        ++++++++        ",
"                        ++++++++        "};
