/* XPM */
static char * grass_d3_xpm[] = {
"40 32 3 1",
" 	c #509B66",
".	c #50AF5D",
"+	c #3E7B50",
"                        ........        ",
"                        ........        ",
"                        ........        ",
"                        ........        ",
"                    ........++++++++    ",
"                    ........++++++++    ",
"                    ........++++++++    ",
"                    ........++++++++    ",
"    ........            ++++++++        ",
"    ........            ++++++++        ",
"    ........            ++++++++        ",
"    ........            ++++++++        ",
"++++............                        ",
"++++............                        ",
"++++............                        ",
"++++............                        ",
"++++++++........        ............    ",
"++++++++........        ............    ",
"++++++++........        ............    ",
"++++++++........        ............    ",
"    ++++++++....    ............++++++++",
"    ++++++++....    ............++++++++",
"    ++++++++....    ............++++++++",
"    ++++++++....    ............++++++++",
"                    ........++++++++    ",
"                    ........++++++++    ",
"                    ........++++++++    ",
"                    ........++++++++    ",
"                    ....++++++++        ",
"                    ....++++++++        ",
"                    ....++++++++        ",
"                    ....++++++++        "};
