/* XPM */
static char * caw3_xpm[] = {
"64 64 9 1",
" 	c #509B66",
".	c #0E071B",
"+	c #FFFFFF",
"@	c #F9E6CF",
"#	c #F6CA9F",
"$	c #F9A4A9",
"%	c #F68187",
"&	c #E69C69",
"*	c #3E7B50",
"          ...             ..                                    ",
"          ...             ..                                    ",
"          ...             ..                                    ",
"        ..+++..        ...++...                                 ",
"        ..+++..        ...++...                                 ",
"        ..+++..        ...++...                                 ",
"     .....+++++........+++++........                            ",
"     .....+++++........+++++........                            ",
"     .....+++++........+++++........                            ",
"   ..@@@@@.....@@@@@@@@.....@@@@@@@@..                          ",
"   ..@@@@@.....@@@@@@@@.....@@@@@@@@..                          ",
"   ..@@@@@.....@@@@@@@@.....@@@@@@@@..                          ",
"...@@###@@...@@@@@@@@@@@@@..@@@@@###@@...                       ",
"...@@###@@...@@@@@@@@@@@@@..@@@@@###@@...                       ",
"...@@###@@...@@@@@@@@@@@@@..@@@@@###@@...                       ",
"...##@@@..@@@@@@@@@@@@@@@@@@.....@@@##...                       ",
"...##@@@..@@@@@@@@@@@@@@@@@@.....@@@##...                       ",
"...##.....@@@..@@@@@...@@@@@#####...##.............             ",
"...##.....@@@..@@@@@...@@@@@#####...##.............             ",
"...##.....@@@..@@@@@...@@@@@#####...##.............             ",
"   .......@@@..@@@@@...@@@@@########..###@@@@@@@@@@...          ",
"   .......@@@..@@@@@...@@@@@########..###@@@@@@@@@@...          ",
"   .......@@@..@@@@@...@@@@@########..###@@@@@@@@@@...          ",
"     ...@@@@@@@@@@@@@@@@@@@@##########@@@@@@@@@@@@@@@@..        ",
"     ...@@@@@@@@@@@@@@@@@@@@##########@@@@@@@@@@@@@@@@..        ",
"     ...@@@@@@@@@@@@@@@@@@@@##########@@@@@@@@@@@@@@@@..        ",
"     ...$$$$$$$$$$@@@@@@@@###############@@@@@@@@@@@@@.....     ",
"     ...$$$$$$$$$$@@@@@@@@###############@@@@@@@@@@@@@.....     ",
"     ...$$$$$$$$$$@@@@@@@@###############@@@@@@@@@@@@@.....     ",
"     ...%%$$$%%$$$$$########...###############@@@@@###..###..   ",
"     ...%%$$$%%$$$$$########...###############@@@@@###..###..   ",
"     ...%%$$$%%$$$$$########...###############@@@@@###..###..   ",
"     ...$$$$$$$$$$$$###.....&&&#####@@@@@#############..&&&##...",
"     ...$$$$$$$$$$$$###.....&&&#####@@@@@#############..&&&##...",
"     ...$$$$$$$$$$$$###.....&&&#####@@@@@#############..&&&##...",
"        ...............&&&&&#####@@@@@@@@@@@#######&&&.....&&...",
"        ...............&&&&&#####@@@@@@@@@@@#######&&&.....&&...",
"        ...............&&&&&#####@@@@@@@@@@@#######&&&.....&&...",
"             ..&&&&&&&&&&&##########@@@@@@@@&&&&&&&&&&..   .....",
"             ..&&&&&&&&&&&##########@@@@@@@@&&&&&&&&&&..   .....",
"             ..&&&&&&&&&&&##########@@@@@@@@&&&&&&&&&&..   .....",
"             ..&&&&&&&&&&&&&&&&&&&&&&&&&&&&&&&&&&&&&&&..        ",
"             ..&&&&&&&&&&&&&&&&&&&&&&&&&&&&&&&&&&&&&&&..        ",
"             ..&&&&&&&&&&&&&&&&&&&&&&&&&&&&&&&&&&&&&&&..        ",
"          ...&&&&&&&&&&&&&&&&&&&&&&&&&&&&&&&&&&&&&&&&&&&...     ",
"          ...&&&&&&&&&&&&&&&&&&&&&&&&&&&&&&&&&&&&&&&&&&&...     ",
"          ...&&&&&&&&&&&&&&&&&&&&&&&&&&&&&&&&&&&&&&&&&&&...     ",
"          ...&&&&&&&&&&..........................&&&&&&&...     ",
"          ...&&&&&&&&&&..........................&&&&&&&...     ",
"        ..&&&&&&&&.....&&&..*****...&&&&&...*****..&&&&&...     ",
"        ..&&&&&&&&.....&&&..*****...&&&&&...*****..&&&&&...     ",
"        ..&&&&&&&&.....&&&..*****...&&&&&...*****..&&&&&...     ",
"        ..&&&&&.....&&&&&&..*****...&&&&&...*******.....        ",
"        ..&&&&&.....&&&&&&..*****...&&&&&...*******.....        ",
"        ..&&&&&.....&&&&&&..*****...&&&&&...*******.....        ",
"          .....*****......**********.....***************        ",
"          .....*****......**********.....***************        ",
"          .....*****......**********.....***************        ",
"             *******************************************        ",
"             *******************************************        ",
"             *******************************************        ",
"               ***************************************          ",
"               ***************************************          ",
"               ***************************************          "};
