/* XPM */
static char * caw7_xpm[] = {
"64 64 13 1",
" 	c #509B66",
".	c #0E071B",
"+	c #F9E6CF",
"@	c #F6CA9F",
"#	c #FFFFFF",
"$	c #E69C69",
"%	c #F3D3B7",
"&	c #ECB894",
"*	c #F9A4A9",
"=	c #EAAA7A",
"-	c #F68187",
";	c #80553C",
">	c #3E7B50",
"         ......                                                 ",
"         ......                                                 ",
"         ......                                                 ",
"       ..++@@@@..                                               ",
"       ..++@@@@..                                               ",
"       ..++@@@@..                                               ",
"       ..++@@@@..                                               ",
"    ...++@@++++.........                                        ",
"    ...++@@++++.........                                        ",
"    ...++@@++++.........                                        ",
"  .....++++++..@@@@@@@...............................           ",
"  .....++++++..@@@@@@@...............................           ",
"  .....++++++..@@@@@@@...............................           ",
"  .....++++++..@@@@@@@...............................           ",
"..#####......+++++++@@@@..@@@@@@@@@@@@@@@@@@+++++++++..         ",
"..#####......+++++++@@@@..@@@@@@@@@@@@@@@@@@+++++++++..         ",
"..#####......+++++++@@@@..@@@@@@@@@@@@@@@@@@+++++++++..         ",
"  ..###..+++++++++++++@@..$$%%%++@@@@@@@@@+++++++++++++..       ",
"  ..###..+++++++++++++@@..$$%%%++@@@@@@@@@+++++++++++++..       ",
"  ..###..+++++++++++++@@..$$%%%++@@@@@@@@@+++++++++++++..       ",
"  ..###..+++++++++++++@@..$$%%%++@@@@@@@@@+++++++++++++..       ",
"    ...++++++....+++++@@@@..&&&@@@@@@@@@@@@@+++++++++++.....    ",
"    ...++++++....+++++@@@@..&&&@@@@@@@@@@@@@+++++++++++.....    ",
"    ...++++++....+++++@@@@..&&&@@@@@@@@@@@@@+++++++++++.....    ",
"    ...+++++++++++++++****..===@@@@@@@@@@@@@@@@@@++++@@..@@@..  ",
"    ...+++++++++++++++****..===@@@@@@@@@@@@@@@@@@++++@@..@@@..  ",
"    ...+++++++++++++++****..===@@@@@@@@@@@@@@@@@@++++@@..@@@..  ",
"    ...+++++++++++++++****..===@@@@@@@@@@@@@@@@@@++++@@..@@@..  ",
"    ...+++++++++++++++****..===@@@@@@@@@@@@@@@@@@++++@@..@@@..  ",
"    ...+++++++++++++******..===@@$$$@@@@++++@@@@@@@@@@@..$$$@@..",
"    ...+++++++++++++******..===@@$$$@@@@++++@@@@@@@@@@@..$$$@@..",
"    ...+++++++++++++******..===@@$$$@@@@++++@@@@@@@@@@@..$$$@@..",
"    ...+++++++++++++******..===@@$$$@@@@++++@@@@@@@@@@@..$$$@@..",
"  ..###..++++....+++**--**..;;;$$@@@@@+++++++++@@@@@@$$.....$$..",
"  ..###..++++....+++**--**..;;;$$@@@@@+++++++++@@@@@@$$.....$$..",
"  ..###..++++....+++**--**..;;;$$@@@@@+++++++++@@@@@@$$.....$$..",
"..#####....+++++++++******..$$$@@@@@@@@@+++++++$$@@$$$$..   ....",
"..#####....+++++++++******..$$$@@@@@@@@@+++++++$$@@$$$$..   ....",
"..#####....+++++++++******..$$$@@@@@@@@@+++++++$$@@$$$$..   ....",
"..#####....+++++++++******..$$$@@@@@@@@@+++++++$$@@$$$$..   ....",
"  .....++@@......+++**--**..$$$$$$$$$$$$$$$$$$$$$$$$$$$..       ",
"  .....++@@......+++**--**..$$$$$$$$$$$$$$$$$$$$$$$$$$$..       ",
"  .....++@@......+++**--**..$$$$$$$$$$$$$$$$$$$$$$$$$$$..       ",
"       ..++++++..................$$$$$$$.........$$$$..         ",
"       ..++++++..................$$$$$$$.........$$$$..         ",
"       ..++++++..................$$$$$$$.........$$$$..         ",
"       ..++++++..................$$$$$$$.........$$$$..         ",
"         ......     ..@@$$..   ..$$$$$..       ..$$$$..         ",
"         ......     ..@@$$..   ..$$$$$..       ..$$$$..         ",
"         ......     ..@@$$..   ..$$$$$..       ..$$$$..         ",
"                    ..@@$$..>>>..$$$$$..>>>>>>>..$$$$..         ",
"                    ..@@$$..>>>..$$$$$..>>>>>>>..$$$$..         ",
"                    ..@@$$..>>>..$$$$$..>>>>>>>..$$$$..         ",
"                    ..@@$$..>>>..$$$$$..>>>>>>>..$$$$..         ",
"                    >>....>>>>>>>.....>>>>>>>>>>>....>>>>       ",
"                    >>....>>>>>>>.....>>>>>>>>>>>....>>>>       ",
"                    >>....>>>>>>>.....>>>>>>>>>>>....>>>>       ",
"                    >>>>>>>>>>>>>>>>>>>>>>>>>>>>>>>>>>>>>       ",
"                    >>>>>>>>>>>>>>>>>>>>>>>>>>>>>>>>>>>>>       ",
"                    >>>>>>>>>>>>>>>>>>>>>>>>>>>>>>>>>>>>>       ",
"                    >>>>>>>>>>>>>>>>>>>>>>>>>>>>>>>>>>>>>       ",
"                      >>>>>>>>>>>>>>>>>>>>>>>>>>>>>>>>>         ",
"                      >>>>>>>>>>>>>>>>>>>>>>>>>>>>>>>>>         ",
"                      >>>>>>>>>>>>>>>>>>>>>>>>>>>>>>>>>         "};
