/* XPM */
static char * caw8_xpm[] = {
"64 64 13 1",
" 	c #509B66",
".	c #0E071B",
"+	c #F6CA9F",
"@	c #F9E6CF",
"#	c #FFFFFF",
"$	c #F3D3B7",
"%	c #E69C69",
"&	c #ECB894",
"*	c #EAAA7A",
"=	c #F9A4A9",
"-	c #80553C",
";	c #F68187",
">	c #3E7B50",
"                                                 ......         ",
"                                                 ......         ",
"                                                 ......         ",
"                                               ..++++@@..       ",
"                                               ..++++@@..       ",
"                                               ..++++@@..       ",
"                                               ..++++@@..       ",
"                                        .........@@@@++@@...    ",
"                                        .........@@@@++@@...    ",
"                                        .........@@@@++@@...    ",
"           ...............................+++++++..@@@@@@.....  ",
"           ...............................+++++++..@@@@@@.....  ",
"           ...............................+++++++..@@@@@@.....  ",
"           ...............................+++++++..@@@@@@.....  ",
"         ..@@@@@@@@@++++++++++++++++++..++++@@@@@@@......#####..",
"         ..@@@@@@@@@++++++++++++++++++..++++@@@@@@@......#####..",
"         ..@@@@@@@@@++++++++++++++++++..++++@@@@@@@......#####..",
"       ..@@@@@@@@@@@@@+++++++++@@$$$%%..++@@@@@@@@@@@@@..###..  ",
"       ..@@@@@@@@@@@@@+++++++++@@$$$%%..++@@@@@@@@@@@@@..###..  ",
"       ..@@@@@@@@@@@@@+++++++++@@$$$%%..++@@@@@@@@@@@@@..###..  ",
"       ..@@@@@@@@@@@@@+++++++++@@$$$%%..++@@@@@@@@@@@@@..###..  ",
"    .....@@@@@@@@@@@+++++++++++++&&&..++++@@@@@....@@@@@@...    ",
"    .....@@@@@@@@@@@+++++++++++++&&&..++++@@@@@....@@@@@@...    ",
"    .....@@@@@@@@@@@+++++++++++++&&&..++++@@@@@....@@@@@@...    ",
"  ..+++..++@@@@++++++++++++++++++***..====@@@@@@@@@@@@@@@...    ",
"  ..+++..++@@@@++++++++++++++++++***..====@@@@@@@@@@@@@@@...    ",
"  ..+++..++@@@@++++++++++++++++++***..====@@@@@@@@@@@@@@@...    ",
"  ..+++..++@@@@++++++++++++++++++***..====@@@@@@@@@@@@@@@...    ",
"  ..+++..++@@@@++++++++++++++++++***..====@@@@@@@@@@@@@@@...    ",
"..++%%%..+++++++++++@@@@++++%%%++***..======@@@@@@@@@@@@@...    ",
"..++%%%..+++++++++++@@@@++++%%%++***..======@@@@@@@@@@@@@...    ",
"..++%%%..+++++++++++@@@@++++%%%++***..======@@@@@@@@@@@@@...    ",
"..++%%%..+++++++++++@@@@++++%%%++***..======@@@@@@@@@@@@@...    ",
"..%%.....%%++++++@@@@@@@@@+++++%%---..==;;==@@@....@@@@..###..  ",
"..%%.....%%++++++@@@@@@@@@+++++%%---..==;;==@@@....@@@@..###..  ",
"..%%.....%%++++++@@@@@@@@@+++++%%---..==;;==@@@....@@@@..###..  ",
"....   ..%%%%++%%@@@@@@@+++++++++%%%..======@@@@@@@@@....#####..",
"....   ..%%%%++%%@@@@@@@+++++++++%%%..======@@@@@@@@@....#####..",
"....   ..%%%%++%%@@@@@@@+++++++++%%%..======@@@@@@@@@....#####..",
"....   ..%%%%++%%@@@@@@@+++++++++%%%..======@@@@@@@@@....#####..",
"       ..%%%%%%%%%%%%%%%%%%%%%%%%%%%..==;;==@@@......++@@.....  ",
"       ..%%%%%%%%%%%%%%%%%%%%%%%%%%%..==;;==@@@......++@@.....  ",
"       ..%%%%%%%%%%%%%%%%%%%%%%%%%%%..==;;==@@@......++@@.....  ",
"         ..%%%%.........%%%%%%%..................@@@@@@..       ",
"         ..%%%%.........%%%%%%%..................@@@@@@..       ",
"         ..%%%%.........%%%%%%%..................@@@@@@..       ",
"         ..%%%%.........%%%%%%%..................@@@@@@..       ",
"         ..%%%%..       ..%%%%%..   ..%%++..     ......         ",
"         ..%%%%..       ..%%%%%..   ..%%++..     ......         ",
"         ..%%%%..       ..%%%%%..   ..%%++..     ......         ",
"         ..%%%%..>>>>>>>..%%%%%..>>>..%%++..                    ",
"         ..%%%%..>>>>>>>..%%%%%..>>>..%%++..                    ",
"         ..%%%%..>>>>>>>..%%%%%..>>>..%%++..                    ",
"         ..%%%%..>>>>>>>..%%%%%..>>>..%%++..                    ",
"       >>>>....>>>>>>>>>>>.....>>>>>>>....>>                    ",
"       >>>>....>>>>>>>>>>>.....>>>>>>>....>>                    ",
"       >>>>....>>>>>>>>>>>.....>>>>>>>....>>                    ",
"       >>>>>>>>>>>>>>>>>>>>>>>>>>>>>>>>>>>>>                    ",
"       >>>>>>>>>>>>>>>>>>>>>>>>>>>>>>>>>>>>>                    ",
"       >>>>>>>>>>>>>>>>>>>>>>>>>>>>>>>>>>>>>                    ",
"       >>>>>>>>>>>>>>>>>>>>>>>>>>>>>>>>>>>>>                    ",
"         >>>>>>>>>>>>>>>>>>>>>>>>>>>>>>>>>                      ",
"         >>>>>>>>>>>>>>>>>>>>>>>>>>>>>>>>>                      ",
"         >>>>>>>>>>>>>>>>>>>>>>>>>>>>>>>>>                      "};
