/* XPM */
static char * portal6_xpm[] = {
"36 64 7 1",
" 	c #509B66",
".	c #3CA370",
"+	c #8FDE5D",
"@	c #3D6E70",
"#	c #323E4F",
"$	c #385660",
"%	c #CFFF70",
"             ........               ",
"             ........               ",
"           ............             ",
"           ............             ",
"           ......++++++             ",
"           ......++++++             ",
"        +++@@..++++++++++           ",
"        +++@@..++++++++++           ",
"        +++@@..++++++++++           ",
"        .......++++++++++           ",
"        .......++++++++++           ",
"      ++.....+++++++++++++++        ",
"      ++.....+++++++++++++++        ",
"      ++@@@..++++......+++++        ",
"      ++@@@..++++......+++++        ",
"    ++.......++++..##$$..+++        ",
"    ++.......++++..##$$..+++        ",
"      .....++++..####$$@@...        ",
"      .....++++..####$$@@...        ",
"    ++@@...++++..####$$$$...++      ",
"    ++@@...++++..####$$$$...++      ",
"    ++@@...++..######$$$$...++      ",
"    ++@@...++..######$$$$...++      ",
"    ++@@...++..########$$...++  ++++",
"    ++@@...++..########$$...++  ++++",
"    ++@@...++..########$$...++  ++++",
"    ++@@...++..########$$@@@..    ++",
"    ++@@...++..########$$@@@..    ++",
"....++@@...++##########$$@@@..      ",
"....++@@...++##########$$@@@..      ",
"..  ++@@...++##########$$@@@..      ",
"..  ++@@...++##########$$@@@..      ",
"    ++@@.....##++++++##$$@@@..      ",
"    ++@@.....##++++++##$$@@@..      ",
"    ++++.....##....++++$$@@@..      ",
"    ++++.....##....++++$$@@@..      ",
"    %%++$$$....##..##++++@@@..      ",
"    %%++$$$....##..##++++@@@..      ",
"    %%++$$$##....####++++@@@..      ",
"    %%++$$$##....####++++@@@..      ",
"    %%++$$$##....####++++@@@..      ",
"    %%+++++$$########++++@@@..      ",
"    %%+++++$$########++++@@@..      ",
"    %%%%+++$$######++%%++.....      ",
"    %%%%+++$$######++%%++.....      ",
"    ++%%+++++++++++%%%%++...        ",
"    ++%%+++++++++++%%%%++...        ",
"      %%%%%%%%%%%++++++@@...        ",
"      %%%%%%%%%%%++++++@@...        ",
"      ++%%%%%%%++++++@@@@...        ",
"      ++%%%%%%%++++++@@@@...        ",
"..    ..+++++++++##$$@@.....        ",
"..    ..+++++++++##$$@@.....        ",
"        ...@@@@$$$$@@@@..           ",
"        ...@@@@$$$$@@@@..           ",
"        .....@@@@@@@@....           ",
"        .....@@@@@@@@....           ",
"        .....@@@@@@@@....           ",
"           ..@@@@@@@@..             ",
"           ..@@@@@@@@..             ",
"           ....@@@@....             ",
"           ....@@@@....             ",
"             ........               ",
"             ........               "};
