/* XPM */
static char * portal3_xpm[] = {
"36 64 8 1",
" 	c #509B66",
".	c #3CA370",
"+	c #8FDE5D",
"@	c #CFFF70",
"#	c #66A667",
"$	c #323E4F",
"%	c #385660",
"&	c #3D6E70",
"               ....++++++           ",
"               ....++++++           ",
"             ....++++++++           ",
"             ....++++++++           ",
"             ..++@@@@@@+++++        ",
"             ..++@@@@@@+++++        ",
"           ..##++@@@@@@@@+++        ",
"           ..##++@@@@@@@@+++        ",
"           ..##++@@@@@@@@+++        ",
"@@@@       ..++@@@@@@@@@@@@@++      ",
"@@@@       ..++@@@@@@@@@@@@@++      ",
"        .....++@@@@++++++@@@++      ",
"        .....++@@@@++++++@@@++      ",
"        ...##++@@+++++++++++@@      ",
"        ...##++@@+++++++++++@@      ",
"  ..    ...++@@@@++++$$%%+++@@      ",
"  ..    ...++@@@@++++$$%%+++@@      ",
"        ...++@@@@++$$$$%%&&&++++    ",
"        ...++@@@@++$$$$%%&&&++++    ",
"      ..###++@@++++$$$$%%%%%++@@    ",
"      ..###++@@++++$$$$%%%%%++@@    ",
"      ..&&&++@@++$$$$$$%%%%%++@@    ",
"      ..&&&++@@++$$$$$$%%%%%++@@    ",
"      ..&&&++++++$$$$$$$$%%%++@@    ",
"      ..&&&++++++$$$$$$$$%%%++@@    ",
"      ..&&&++++++$$$$$$$$%%%++@@    ",
"      ..&&&++++++$$$$$$$$%%%&&++    ",
"      ..&&&++++++$$$$$$$$%%%&&++    ",
"      ..&&&++@@$$$$$$$$$$%%%&&++    ",
"      ..&&&++@@$$$$$$$$$$%%%&&++    ",
"      ..&&&++@@$$$$$$$$$$%%%&&++    ",
"      ..&&&++@@$$$$$$$$$$%%%&&++    ",
"      ..&&&++@@$$......$$%%%&&++    ",
"      ..&&&++@@$$......$$%%%&&++    ",
"      .....++++$$..++....%%%&&++    ",
"      .....++++$$..++....%%%&&++    ",
"      ++...%%++++$$++$$.....&&++    ",
"      ++...%%++++$$++$$.....&&++    ",
"      ++...%%$$++++$$$$.....&&++    ",
"      ++...%%$$++++$$$$.....&&++    ",
"      ++...%%$$++++$$$$.....&&++    ",
"      ++.....%%$$$$$$$$++...&&++    ",
"      ++.....%%$$$$$$$$++...&&++    ",
"      +++++..%%$$$$$$..++.......    ",
"      +++++..%%$$$$$$..++.......    ",
"        +++............++.....      ",
"        +++............++.....      ",
"        +++++++++++++++..&&&..      ",
"        +++++++++++++++..&&&..      ",
"        .....++++++....&&###++      ",
"        .....++++++....&&###++      ",
"        ...........$$%%&&...++      ",
"        ...........$$%%&&...++      ",
"           ..##&&%%%%&&##...        ",
"           ..##&&%%%%&&##...        ",
"           ....&&&&&&&&..+++    ....",
"           ....&&&&&&&&..+++    ....",
"           ....&&&&&&&&..+++    ....",
"        ...  ..##&&&&##..       ....",
"        ...  ..##&&&&##..       ....",
"             ....####..++           ",
"             ....####..++           ",
"               ........             ",
"               ........             "};
