/* XPM */
static char * portal7_xpm[] = {
"17 17 6 1",
" 	c #509B66",
".	c #000000",
"+	c #323E4F",
"@	c #8FDE5D",
"#	c #3CA370",
"$	c #385660",
"      .....      ",
"    ...+++...    ",
"  ...@++++++...  ",
"  .#@@++++++++.  ",
" ..###++@@@@@@.. ",
"..####++@@@@@@+. ",
".#####++####@@@..",
".#####++####@@@@.",
".$$$####++##++@@.",
".$$$####++##++@@.",
"..$$++####++++@..",
" .$$++####++++@. ",
" ..$++####++++.. ",
"  .@$$++++++++.  ",
"  ...$++++++...  ",
"    ...+++...    ",
"      .....      "};
