/* XPM */
static char * portal4_xpm[] = {
"36 64 7 1",
" 	c #509B66",
".	c #8FDE5D",
"+	c #CFFF70",
"@	c #3D6E70",
"#	c #3CA370",
"$	c #354A57",
"%	c #323E4F",
"           ..++......               ",
"           ..++......               ",
"           ++....@@##..             ",
"           ++....@@##..             ",
"        .......@@@@@@##             ",
"        .......@@@@@@##             ",
"++      +++..@@$$$$@@@@..           ",
"++      +++..@@$$$$@@@@..           ",
"++      +++..@@$$$$@@@@..           ",
"      ..+++..$$%%%%$$@@##           ",
"      ..+++..$$%%%%$$@@##           ",
"      +++++..$$%%%%$$@@##...        ",
"      +++++..$$%%%%$$@@##...        ",
"      ++...@@%%%%%%%%$$@@...        ",
"      ++...@@%%%%%%%%$$@@...        ",
"    ..++...$$%%%%%%%%$$@@###        ",
"    ..++...$$%%%%%%%%$$@@###        ",
"    ..++...$$%%%%%%%%$$@@###        ",
"    ..++...$$%%%%%%%%$$@@###        ",
"    ++++...%%%%%%%%%%%%$$###..      ",
"    ++++...%%%%%%%%%%%%$$###..      ",
"    ++++...%%%%%%%%%%%%$$@@@..      ",
"    ++++...%%%%%%%%%%%%$$@@@..      ",
"    ++++...%%%%%%%%%%%%$$@@@##      ",
"    ++++...%%%%%%%%%%%%$$@@@##      ",
"    ++++...%%%%%%%%%%%%$$@@@##      ",
"    ++++...%%%%%%%%###########      ",
"    ++++...%%%%%%%%###########      ",
"    ..++...%%%%######.......##      ",
"    ..++...%%%%######.......##      ",
"    ..++.....####.............      ",
"    ..++.....####.............      ",
"    ##..+++..##########.......++    ",
"    ##..+++..##########.......++    ",
"    ##..+++..##%%..%%####.....      ",
"    ##..+++..##%%..%%####.....      ",
"    ##@@...++..##..%%%%##.....      ",
"    ##@@...++..##..%%%%##.....      ",
"    ##@@$$$......%%%%%%##.....      ",
"    ##@@$$$......%%%%%%##.....      ",
"    ##@@$$$......%%%%%%##.....      ",
"    ##@@$$$%%%%%%%%%%%%##.....      ",
"    ##@@$$$%%%%%%%%%%%%##.....      ",
"    ####@@@$$%%%%%%%%$$##.....      ",
"    ####@@@$$%%%%%%%%$$##.....      ",
"      ##@@@$$%%%%%%%%$$##...        ",
"      ##@@@$$%%%%%%%%$$##...        ",
"      ##@@@$$%%%%%%%%$$##...        ",
"      ##@@@$$%%%%%%%%$$##...        ",
"      ##@@@@@%%%%%%%%##.....        ",
"      ##@@@@@%%%%%%%%##.....        ",
"      #####@@$$%%%%$$##.....        ",
"      #####@@$$%%%%$$##.....        ",
"        ###@@@@$$$$@@##..           ",
"        ###@@@@$$$$@@##..           ",
"  ####  #####@@@@@@##....       ....",
"  ####  #####@@@@@@##....       ....",
"  ####  #####@@@@@@##....       ....",
"  ####     ##@@######..           ..",
"  ####     ##@@######..           ..",
"           ####........             ",
"           ####........             ",
"             ########               ",
"             ########               "};
