/* XPM */
static char * ext_lat_xpm[] = {
"20 26 4 1",
" 	c #21110D",
".	c #9D7658",
"+	c #503625",
"@	c #755338",
"                    ",
"                    ",
"                    ",
"                    ",
"....................",
"....................",
"....................",
"....................",
"....................",
"+++++@@@@@@@@@++++++",
"+++++@@@@@@@@@++++++",
"+++++@@@@@@@@@++++++",
"+++++@@@@@@@@@++++++",
"@@@@@+++++++++++++++",
"@@@@@+++++++++++++++",
"@@@@@+++++++++++++++",
"@@@@@+++++++++++++++",
"++++++++++++++@@@@@@",
"++++++++++++++@@@@@@",
"++++++++++++++@@@@@@",
"++++++++++++++@@@@@@",
"++++++++++++++@@@@@@",
"                    ",
"                    ",
"                    ",
"                    "};
