/* XPM */
static char * ext_or_xpm[] = {
"24 30 3 1",
" 	c #755338",
".	c #9D7658",
"+	c #21110D",
"     ..............     ",
"     ..............     ",
"     ..............     ",
"     ..............     ",
"+++++..............+++++",
"+++++..............+++++",
"+++++..............+++++",
"+++++..............+++++",
"+++++..............+++++",
"+++++..............+++++",
"+++++..............+++++",
"+++++..............+++++",
"+++++..............+++++",
"+++++..............+++++",
"+++++..............+++++",
"+++++..............+++++",
"+++++..............+++++",
"+++++..............+++++",
"+++++..............+++++",
"+++++..............+++++",
"+++++..............+++++",
"+++++..............+++++",
"+++++..............+++++",
"+++++..............+++++",
"+++++..............+++++",
"+++++..............+++++",
"+++++..............+++++",
"+++++..............+++++",
"+++++..............+++++",
"+++++..............+++++"};
