/* XPM */
static char * fence_xpm[] = {
"64 64 6 1",
" 	c #509b66",
".	c #21110D",
"+	c #755338",
"@	c #9D7658",
"#	c #503625",
"$	c #2C683E:",
"               ..................................               ",
"               ..................................               ",
"               ..................................               ",
"               ..................................               ",
"          .....+++++@@@@@@@@@@@@@@@@@@@@@@@@+++++.....          ",
"          .....+++++@@@@@@@@@@@@@@@@@@@@@@@@+++++.....          ",
"          .....+++++@@@@@@@@@@@@@@@@@@@@@@@@+++++.....          ",
"          .....+++++@@@@@@@@@@@@@@@@@@@@@@@@+++++.....          ",
"          .....+++++@@@@@@@@@@@@@@@@@@@@@@@@+++++.....          ",
"     .....+++++@@@@@@@@@@++++++++++++++@@@@@@@@@@+++++.....     ",
"     .....+++++@@@@@@@@@@++++++++++++++@@@@@@@@@@+++++.....     ",
"     .....+++++@@@@@@@@@@++++++++++++++@@@@@@@@@@+++++.....     ",
"     .....+++++@@@@@@@@@@++++++++++++++@@@@@@@@@@+++++.....     ",
"     .....+++++@@@@@@@@@@++++++++++++++@@@@@@@@@@+++++.....     ",
"     .....+++++@@@@@@@@@@++++++++++++++@@@@@@@@@@+++++.....     ",
"     .....+++++@@@@@@@@@@++++++++++++++@@@@@@@@@@+++++.....     ",
"     .....+++++@@@@@@@@@@++++++++++++++@@@@@@@@@@+++++.....     ",
"     .....#####+++++@@@@@@@@@@@@@@@@@@@@@@@@+++++#####.....     ",
"     .....#####+++++@@@@@@@@@@@@@@@@@@@@@@@@+++++#####.....     ",
"     .....#####+++++@@@@@@@@@@@@@@@@@@@@@@@@+++++#####.....     ",
"     .....#####+++++@@@@@@@@@@@@@@@@@@@@@@@@+++++#####.....     ",
"          .....#####++++++++++++++++++++++++#####.....          ",
"          .....#####++++++++++++++++++++++++#####.....          ",
"          .....#####++++++++++++++++++++++++#####.....          ",
"          .....#####++++++++++++++++++++++++#####.....          ",
"          .....#####++++++++++++++++++++++++#####.....          ",
"          ............................................          ",
"          ............................................          ",
"          ............................................          ",
"          ............................................          ",
"          .....##########+++++####++++++++++#####.....          ",
"          .....##########+++++####++++++++++#####.....          ",
"          .....##########+++++####++++++++++#####.....          ",
"          .....##########+++++####++++++++++#####.....          ",
"          .....#####++++++++++++++#####+++++#####.....          ",
"          .....#####++++++++++++++#####+++++#####.....          ",
"          .....#####++++++++++++++#####+++++#####.....          ",
"          .....#####++++++++++++++#####+++++#####.....          ",
"          .....#####++++++++++++++#####+++++#####.....          ",
"          .....#####++++++++++++++#####+++++#####.....          ",
"          .....#####++++++++++++++#####+++++#####.....          ",
"          .....#####++++++++++++++#####+++++#####.....          ",
"          .....#####++++++++++++++#####+++++#####.....          ",
"     $$$$$.....#####+++++#####++++++++++++++#####.....$$$$$     ",
"     $$$$$.....#####+++++#####++++++++++++++#####.....$$$$$     ",
"     $$$$$.....#####+++++#####++++++++++++++#####.....$$$$$     ",
"     $$$$$.....#####+++++#####++++++++++++++#####.....$$$$$     ",
"     $$$$$.....##########.....+++++++++##########.....$$$$$     ",
"     $$$$$.....##########.....+++++++++##########.....$$$$$     ",
"     $$$$$.....##########.....+++++++++##########.....$$$$$     ",
"     $$$$$.....##########.....+++++++++##########.....$$$$$     ",
"$$$$$$$$$$$$$$$.....#####.....####.....#####.....$$$$$$$$$$$$$$$",
"$$$$$$$$$$$$$$$.....#####.....####.....#####.....$$$$$$$$$$$$$$$",
"$$$$$$$$$$$$$$$.....#####.....####.....#####.....$$$$$$$$$$$$$$$",
"$$$$$$$$$$$$$$$.....#####.....####.....#####.....$$$$$$$$$$$$$$$",
"          $$$$$$$$$$$$$$$$$$$$$$$$$$$$$$$$$$$$$$$$$$$$          ",
"          $$$$$$$$$$$$$$$$$$$$$$$$$$$$$$$$$$$$$$$$$$$$          ",
"          $$$$$$$$$$$$$$$$$$$$$$$$$$$$$$$$$$$$$$$$$$$$          ",
"          $$$$$$$$$$$$$$$$$$$$$$$$$$$$$$$$$$$$$$$$$$$$          ",
"          $$$$$$$$$$$$$$$$$$$$$$$$$$$$$$$$$$$$$$$$$$$$          ",
"               $$$$$                        $$$$$               ",
"               $$$$$                        $$$$$               ",
"               $$$$$                        $$$$$               ",
"               $$$$$                        $$$$$               "};
