/* XPM */
static char * farmer10_xpm[] = {
"50 64 15 1",
" 	c #509B66",
".	c #A93B3B",
"+	c #D24129",
"@	c #F47E1B",
"#	c #F4B41B",
"$	c #000000",
"%	c #5E3643",
"&	c #F4CCA1",
"*	c #E7462A",
"=	c #EEA160",
"-	c #3678A9",
";	c #4E536B",
">	c #A05B53",
",	c #7A4248",
"'	c #BF7958",
"                                                  ",
"                                                  ",
"                                                  ",
"                                                  ",
"              ......................              ",
"              ......................              ",
"              ......................              ",
"           ...++++@@@@@@@@@@@@@@++++...           ",
"           ...++++@@@@@@@@@@@@@@++++...           ",
"           ...++++@@@@@@@@@@@@@@++++...           ",
"           ...++++@@@@@@@@@@@@@@++++...           ",
"       ....@@@@@@@@@@@@@@@@@@@@@@@@@@@@....       ",
"       ....@@@@@@@@@@@@@@@@@@@@@@@@@@@@....       ",
"       ....@@@@@@@@@@@@@@@@@@@@@@@@@@@@....       ",
"    ...++++@@@@@@@@@@@@@@@@@@@@@@@@@@@@++++...    ",
"    ...++++@@@@@@@@@@@@@@@@@@@@@@@@@@@@++++...    ",
"    ...++++@@@@@@@@@@@@@@@@@@@@@@@@@@@@++++...    ",
"    ...++++@@@@@@@@@@@@@@@@@@@@@@@@@@@@++++...    ",
"    ...@@@@@@@####@@@###########@@@@@@@@@@@...    ",
"    ...@@@@@@@####@@@###########@@@@@@@@@@@...    ",
"    ...@@@@@@@####@@@###########@@@@@@@@@@@...    ",
"....+++@@@@@@@@@@@@@@@@@@@@@@@@@@@@@@@@@@@@+++....",
"....+++@@@@@@@@@@@@@@@@@@@@@@@@@@@@@@@@@@@@+++....",
"....+++@@@@@@@@@@@@@@@@@@@@@@@@@@@@@@@@@@@@+++....",
"....+++@@@@@@@@@@@@@@@@@@@@@@@@@@@@@@@@@@@@+++....",
"....@@@@@@@@@@@@@@@@@@@@@@@@@@@@@@@@@@@@@@@@@@....",
"....@@@@@@@@@@@@@@@@@@@@@@@@@@@@@@@@@@@@@@@@@@....",
"....@@@@@@@@@@@@@@@@@@@@@@@@@@@@@@@@@@@@@@@@@@....",
"$$$$@@@++++@@@@@@@@@@@@@@@@@@@@@@@@@@@@++++@@@$$$$",
"$$$$@@@++++@@@@@@@@@@@@@@@@@@@@@@@@@@@@++++@@@$$$$",
"$$$$@@@++++@@@@@@@@@@@@@@@@@@@@@@@@@@@@++++@@@$$$$",
"$$$$@@@++++@@@@@@@@@@@@@@@@@@@@@@@@@@@@++++@@@$$$$",
"$$$$++++++++++@@@@+++@@@@@@@@@@@@@@@++++++++++$$$$",
"$$$$++++++++++@@@@+++@@@@@@@@@@@@@@@++++++++++$$$$",
"$$$$++++++++++@@@@+++@@@@@@@@@@@@@@@++++++++++$$$$",
"$$$$++++++++++@@@@+++@@@@@@@@@@@@@@@++++++++++$$$$",
"$$$$...++++++++++++++++++@@@@+++@@@@+++....+++$$$$",
"$$$$...++++++++++++++++++@@@@+++@@@@+++....+++$$$$",
"$$$$...++++++++++++++++++@@@@+++@@@@+++....+++$$$$",
"    $$$++++...+++++++....+++++++++++.......$$$    ",
"    $$$++++...+++++++....+++++++++++.......$$$    ",
"    $$$++++...+++++++....+++++++++++.......$$$    ",
"    $$$++++...+++++++....+++++++++++.......$$$    ",
"    %%%%%%%...++++.......+++++++.......%%%%$$$    ",
"    %%%%%%%...++++.......+++++++.......%%%%$$$    ",
"    %%%%%%%...++++.......+++++++.......%%%%$$$    ",
"%%%%&&&****$$$$$$$$$$....$$$$$$$....$$$====$$$    ",
"%%%%&&&****$$$$$$$$$$....$$$$$$$....$$$====$$$    ",
"%%%%&&&****$$$$$$$$$$....$$$$$$$....$$$====$$$    ",
"%%%%&&&****$$$$$$$$$$....$$$$$$$....$$$====$$$    ",
"$$$$===&&&&%%%----;;;;;;;;;;;;;;----%%%$$$$       ",
"$$$$===&&&&%%%----;;;;;;;;;;;;;;----%%%$$$$       ",
"$$$$===&&&&%%%----;;;;;;;;;;;;;;----%%%$$$$       ",
"    $$$$$$$$$$>>>>,,,----------->>>>$$$           ",
"    $$$$$$$$$$>>>>,,,----------->>>>$$$           ",
"    $$$$$$$$$$>>>>,,,----------->>>>$$$           ",
"    $$$$$$$$$$>>>>,,,----------->>>>$$$           ",
"           $$$$$$$$$$''''''''>>>,,,,$$$           ",
"           $$$$$$$$$$''''''''>>>,,,,$$$           ",
"           $$$$$$$$$$''''''''>>>,,,,$$$           ",
"                     $$$$$$$$$$$$$$$$$$           ",
"                     $$$$$$$$$$$$$$$$$$           ",
"                     $$$$$$$$$$$$$$$$$$           ",
"                     $$$$$$$$$$$$$$$$$$           "};
