/* XPM */
static char * farmer4_xpm[] = {
"50 64 18 1",
" 	c #509B66",
".	c #A93B3B",
"+	c #D24129",
"@	c #F47E1B",
"#	c #F4B41B",
"$	c #000000",
"%	c #F4CCA1",
"&	c #CFC6B8",
"*	c #3978A8",
"=	c #FFFFFF",
"-	c #AA3838",
";	c #3678A9",
">	c #4E536B",
",	c #E7462A",
"'	c #EEA160",
")	c #7A4248",
"!	c #BF7958",
"~	c #A05B53",
"                                                  ",
"                                                  ",
"                                                  ",
"                                                  ",
"              .........................           ",
"              .........................           ",
"              .........................           ",
"           ...++++@@@@@@@@@@@@@@+++++++....       ",
"           ...++++@@@@@@@@@@@@@@+++++++....       ",
"           ...++++@@@@@@@@@@@@@@+++++++....       ",
"           ...++++@@@@@@@@@@@@@@+++++++....       ",
"    .......@@@@@@@@@@@@@@@@@@@@@@@@@@@@++++...    ",
"    .......@@@@@@@@@@@@@@@@@@@@@@@@@@@@++++...    ",
"    .......@@@@@@@@@@@@@@@@@@@@@@@@@@@@++++...    ",
"    ...#######@@@@@@@++++@@@@@@@@@@@@@@@@@@...    ",
"    ...#######@@@@@@@++++@@@@@@@@@@@@@@@@@@...    ",
"    ...#######@@@@@@@++++@@@@@@@@@@@@@@@@@@...    ",
"    ...#######@@@@@@@++++@@@@@@@@@@@@@@@@@@...    ",
"       ++++@@@#######++++####@@@####@@@@@@@+++....",
"       ++++@@@#######++++####@@@####@@@@@@@+++....",
"       ++++@@@#######++++####@@@####@@@@@@@+++....",
"           $$$+++++++%%%%++++@@@@@@@+++@@@@@@@....",
"           $$$+++++++%%%%++++@@@@@@@+++@@@@@@@....",
"           $$$+++++++%%%%++++@@@@@@@+++@@@@@@@....",
"           $$$+++++++%%%%++++@@@@@@@+++@@@@@@@....",
"           $$$%%%%$$$$$$$%%%%+++@@@@+++@@@@@@@$$$$",
"           $$$%%%%$$$$$$$%%%%+++@@@@+++@@@@@@@$$$$",
"           $$$%%%%$$$$$$$%%%%+++@@@@+++@@@@@@@$$$$",
"           @@@%%%%$$$&&&&%%%%+++@@@@+++@@@@+++$$$$",
"           @@@%%%%$$$&&&&%%%%+++@@@@+++@@@@+++$$$$",
"           @@@%%%%$$$&&&&%%%%+++@@@@+++@@@@+++$$$$",
"           @@@%%%%$$$&&&&%%%%+++@@@@+++@@@@+++$$$$",
"       $$$$%%%@@@@***====+++++++++++++++++++++$$$$",
"       $$$$%%%@@@@***====+++++++++++++++++++++$$$$",
"       $$$$%%%@@@@***====+++++++++++++++++++++$$$$",
"       $$$$%%%@@@@***====+++++++++++++++++++++$$$$",
"       $$$$@@@@@@@@@@@@@@++++@@@$$$$+++++++$$$    ",
"       $$$$@@@@@@@@@@@@@@++++@@@$$$$+++++++$$$    ",
"       $$$$@@@@@@@@@@@@@@++++@@@$$$$+++++++$$$    ",
"           $$$@@@@+++@@@@++++$$$$$$$$$$++++$$$    ",
"           $$$@@@@+++@@@@++++$$$$$$$$$$++++$$$    ",
"           $$$@@@@+++@@@@++++$$$$$$$$$$++++$$$    ",
"           $$$@@@@+++@@@@++++$$$$$$$$$$++++$$$    ",
"           $$$$$$$$$$--------;;;>>>>$$$$$$$       ",
"           $$$$$$$$$$--------;;;>>>>$$$$$$$       ",
"           $$$$$$$$$$--------;;;>>>>$$$$$$$       ",
"       $$$$%%%%%%%,,,,,,,,,,,---;;;;$$$           ",
"       $$$$%%%%%%%,,,,,,,,,,,---;;;;$$$           ",
"       $$$$%%%%%%%,,,,,,,,,,,---;;;;$$$           ",
"       $$$$%%%%%%%,,,,,,,,,,,---;;;;$$$           ",
"       $$$$%%%'''',,,,,,,---->>>;;;;$$$$$$$       ",
"       $$$$%%%'''',,,,,,,---->>>;;;;$$$$$$$       ",
"       $$$$%%%'''',,,,,,,---->>>;;;;$$$$$$$       ",
"           $$$$$$$;;;>>>>>>>>;;;)))))))$$$$$$$    ",
"           $$$$$$$;;;>>>>>>>>;;;)))))))$$$$$$$    ",
"           $$$$$$$;;;>>>>>>>>;;;)))))))$$$$$$$    ",
"           $$$$$$$;;;>>>>>>>>;;;)))))))$$$$$$$    ",
"       $$$$!!!~~~~;;;$$$$$$$$)))))))~~~!!!!$$$    ",
"       $$$$!!!~~~~;;;$$$$$$$$)))))))~~~!!!!$$$    ",
"       $$$$!!!~~~~;;;$$$$$$$$)))))))~~~!!!!$$$    ",
"           $$$!!!!~~~$$$$    $$$~~~~!!!$$$$       ",
"           $$$!!!!~~~$$$$    $$$~~~~!!!$$$$       ",
"           $$$!!!!~~~$$$$    $$$~~~~!!!$$$$       ",
"           $$$!!!!~~~$$$$    $$$~~~~!!!$$$$       "};
