/* XPM */
static char * farmer5_xpm[] = {
"50 64 17 1",
" 	c #509B66",
".	c #A93B3B",
"+	c #D24129",
"@	c #F47E1B",
"#	c #F4B41B",
"$	c #000000",
"%	c #F4CCA1",
"&	c #CFC6B8",
"*	c #3978A8",
"=	c #FFFFFF",
"-	c #3678A9",
";	c #AA3838",
">	c #E7462A",
",	c #4E536B",
"'	c #BF7958",
")	c #7A4248",
"!	c #A05B53",
"              .........................           ",
"              .........................           ",
"              .........................           ",
"              .........................           ",
"           ...++++@@@@@@@@@@@@@@+++++++....       ",
"           ...++++@@@@@@@@@@@@@@+++++++....       ",
"           ...++++@@@@@@@@@@@@@@+++++++....       ",
"       ....@@@@@@@@@@@@@@@@@@@@@@@@@@@@++++...    ",
"       ....@@@@@@@@@@@@@@@@@@@@@@@@@@@@++++...    ",
"       ....@@@@@@@@@@@@@@@@@@@@@@@@@@@@++++...    ",
"       ....@@@@@@@@@@@@@@@@@@@@@@@@@@@@++++...    ",
"       ....###@@@@@@@++++@@@@@@@@@@@@@@@@@@...    ",
"       ....###@@@@@@@++++@@@@@@@@@@@@@@@@@@...    ",
"       ....###@@@@@@@++++@@@@@@@@@@@@@@@@@@...    ",
"       ....@@@#######++++####@@@####@@@@@@@+++....",
"       ....@@@#######++++####@@@####@@@@@@@+++....",
"       ....@@@#######++++####@@@####@@@@@@@+++....",
"       ....@@@#######++++####@@@####@@@@@@@+++....",
"           $$$+++++++%%%%++++@@@@@@@+++@@@@@@@....",
"           $$$+++++++%%%%++++@@@@@@@+++@@@@@@@....",
"           $$$+++++++%%%%++++@@@@@@@+++@@@@@@@....",
"           $$$%%%%$$$$$$$%%%%+++@@@@+++@@@@@@@$$$$",
"           $$$%%%%$$$$$$$%%%%+++@@@@+++@@@@@@@$$$$",
"           $$$%%%%$$$$$$$%%%%+++@@@@+++@@@@@@@$$$$",
"           $$$%%%%$$$$$$$%%%%+++@@@@+++@@@@@@@$$$$",
"           @@@%%%%$$$&&&&%%%%+++@@@@+++@@@@+++$$$$",
"           @@@%%%%$$$&&&&%%%%+++@@@@+++@@@@+++$$$$",
"           @@@%%%%$$$&&&&%%%%+++@@@@+++@@@@+++$$$$",
"       $$$$%%%@@@@***====+++++++++++++++++++++$$$$",
"       $$$$%%%@@@@***====+++++++++++++++++++++$$$$",
"       $$$$%%%@@@@***====+++++++++++++++++++++$$$$",
"       $$$$%%%@@@@***====+++++++++++++++++++++$$$$",
"       $$$$@@@@@@@@@@@@@@++++@@@$$$$+++++++$$$    ",
"       $$$$@@@@@@@@@@@@@@++++@@@$$$$+++++++$$$    ",
"       $$$$@@@@@@@@@@@@@@++++@@@$$$$+++++++$$$    ",
"       $$$$@@@@@@@@@@@@@@++++@@@$$$$+++++++$$$    ",
"           $$$@@@@+++@@@@++++$$$$$$$$$$++++$$$    ",
"           $$$@@@@+++@@@@++++$$$$$$$$$$++++$$$    ",
"           $$$@@@@+++@@@@++++$$$$$$$$$$++++$$$    ",
"           $$$$$$$+++++++----;;;$$$$$$$$$$$       ",
"           $$$$$$$+++++++----;;;$$$$$$$$$$$       ",
"           $$$$$$$+++++++----;;;$$$$$$$$$$$       ",
"           $$$$$$$+++++++----;;;$$$$$$$$$$$       ",
"              $$$$$$$---->>>>>>>;;;;$$$           ",
"              $$$$$$$---->>>>>>>;;;;$$$           ",
"              $$$$$$$---->>>>>>>;;;;$$$           ",
"              $$$$-------%%%%%%%>>>>$$$           ",
"              $$$$-------%%%%%%%>>>>$$$           ",
"              $$$$-------%%%%%%%>>>>$$$           ",
"              $$$$-------%%%%%%%>>>>$$$           ",
"              $$$$,,,,,,,%%%%%%%''''$$$           ",
"              $$$$,,,,,,,%%%%%%%''''$$$           ",
"              $$$$,,,,,,,%%%%%%%''''$$$           ",
"              $$$$$$$----)))))))$$$$              ",
"              $$$$$$$----)))))))$$$$              ",
"              $$$$$$$----)))))))$$$$              ",
"              $$$$$$$----)))))))$$$$              ",
"                  $$$''''''''!!!$$$$              ",
"                  $$$''''''''!!!$$$$              ",
"                  $$$''''''''!!!$$$$              ",
"                  $$$$$$$$$$$$$$$$$$              ",
"                  $$$$$$$$$$$$$$$$$$              ",
"                  $$$$$$$$$$$$$$$$$$              ",
"                  $$$$$$$$$$$$$$$$$$              "};
