/* XPM */
static char * farmer8_xpm[] = {
"50 64 18 1",
" 	c #509B66",
".	c #A93B3B",
"+	c #D24129",
"@	c #F47E1B",
"#	c #F4B41B",
"$	c #F4CCA1",
"%	c #000000",
"&	c #CFC6B8",
"*	c #FFFFFF",
"=	c #3978A8",
"-	c #AA3838",
";	c #5E3643",
">	c #E7462A",
",	c #3678A9",
"'	c #BF7958",
")	c #4E536B",
"!	c #7A4248",
"~	c #A05B53",
"                  .........................       ",
"                  .........................       ",
"                  .........................       ",
"                  .........................       ",
"              ....+++++++@@@@@@@@@@@@@@++++...    ",
"              ....+++++++@@@@@@@@@@@@@@++++...    ",
"              ....+++++++@@@@@@@@@@@@@@++++...    ",
"           ...++++@@@@@@@@@@@@@@@@@@@@@@@@@@@@....",
"           ...++++@@@@@@@@@@@@@@@@@@@@@@@@@@@@....",
"           ...++++@@@@@@@@@@@@@@@@@@@@@@@@@@@@....",
"           ...++++@@@@@@@@@@@@@@@@@@@@@@@@@@@@....",
"           ...@@@@@@@@@@@@@@@@@@++++@@@@@@@###....",
"           ...@@@@@@@@@@@@@@@@@@++++@@@@@@@###....",
"           ...@@@@@@@@@@@@@@@@@@++++@@@@@@@###....",
"       ....+++@@@@@@@####@@@@###++++#######@@@....",
"       ....+++@@@@@@@####@@@@###++++#######@@@....",
"       ....+++@@@@@@@####@@@@###++++#######@@@....",
"       ....+++@@@@@@@####@@@@###++++#######@@@....",
"       ....@@@@@@@+++@@@@@@@@+++$$$$+++++++%%%    ",
"       ....@@@@@@@+++@@@@@@@@+++$$$$+++++++%%%    ",
"       ....@@@@@@@+++@@@@@@@@+++$$$$+++++++%%%    ",
"       %%%%@@@@@@@+++@@@@++++$$$%%%%%%%$$$$%%%    ",
"       %%%%@@@@@@@+++@@@@++++$$$%%%%%%%$$$$%%%    ",
"       %%%%@@@@@@@+++@@@@++++$$$%%%%%%%$$$$%%%    ",
"       %%%%@@@@@@@+++@@@@++++$$$%%%%%%%$$$$%%%    ",
"       %%%%+++@@@@+++@@@@++++$$$&&&&%%%$$$$@@@    ",
"       %%%%+++@@@@+++@@@@++++$$$&&&&%%%$$$$@@@    ",
"       %%%%+++@@@@+++@@@@++++$$$&&&&%%%$$$$@@@    ",
"       %%%%+++++++++++++++++++++****===@@@@$$$%%%%",
"       %%%%+++++++++++++++++++++****===@@@@$$$%%%%",
"       %%%%+++++++++++++++++++++****===@@@@$$$%%%%",
"       %%%%+++++++++++++++++++++****===@@@@$$$%%%%",
"           %%%+++++++%%%%@@@@+++@@@@@@@@@@@@@@%%%%",
"           %%%+++++++%%%%@@@@+++@@@@@@@@@@@@@@%%%%",
"           %%%+++++++%%%%@@@@+++@@@@@@@@@@@@@@%%%%",
"           %%%+++++++%%%%@@@@+++@@@@@@@@@@@@@@%%%%",
"           %%%++++%%%%%%%%%%%+++@@@@+++@@@@%%%    ",
"           %%%++++%%%%%%%%%%%+++@@@@+++@@@@%%%    ",
"           %%%++++%%%%%%%%%%%+++@@@@+++@@@@%%%    ",
"              %%%%%%%%%%%----;;;+++++++%%%%%%%    ",
"              %%%%%%%%%%%----;;;+++++++%%%%%%%    ",
"              %%%%%%%%%%%----;;;+++++++%%%%%%%    ",
"              %%%%%%%%%%%----;;;+++++++%%%%%%%    ",
"                  %%%---->>>>>>>%%%%%%%%%%%       ",
"                  %%%---->>>>>>>%%%%%%%%%%%       ",
"                  %%%---->>>>>>>%%%%%%%%%%%       ",
"                  %%%>>>>$$$$$$$,,,,,,,%%%%       ",
"                  %%%>>>>$$$$$$$,,,,,,,%%%%       ",
"                  %%%>>>>$$$$$$$,,,,,,,%%%%       ",
"                  %%%>>>>$$$$$$$,,,,,,,%%%%       ",
"                  %%%''''$$$$$$$)))))))%%%%       ",
"                  %%%''''$$$$$$$)))))))%%%%       ",
"                  %%%''''$$$$$$$)))))))%%%%       ",
"                     %%%%!!!!!!!,,,,%%%%%%%       ",
"                     %%%%!!!!!!!,,,,%%%%%%%       ",
"                     %%%%!!!!!!!,,,,%%%%%%%       ",
"                     %%%%!!!!!!!,,,,%%%%%%%       ",
"                     %%%%~~~~'''''''%%%           ",
"                     %%%%~~~~'''''''%%%           ",
"                     %%%%~~~~'''''''%%%           ",
"                     %%%%%%%%%%%%%%%%%%           ",
"                     %%%%%%%%%%%%%%%%%%           ",
"                     %%%%%%%%%%%%%%%%%%           ",
"                     %%%%%%%%%%%%%%%%%%           "};
